<?xml version="1.0" encoding="UTF-8" standalone="no"?>
<!-- Created with Inkscape (http://www.inkscape.org/) -->

<svg
   xmlns:dc="http://purl.org/dc/elements/1.1/"
   xmlns:cc="http://creativecommons.org/ns#"
   xmlns:rdf="http://www.w3.org/1999/02/22-rdf-syntax-ns#"
   xmlns:svg="http://www.w3.org/2000/svg"
   xmlns="http://www.w3.org/2000/svg"
   xmlns:sodipodi="http://sodipodi.sourceforge.net/DTD/sodipodi-0.dtd"
   xmlns:inkscape="http://www.inkscape.org/namespaces/inkscape"
   width="50"
   height="50"
   id="svg2"
   version="1.1"
   inkscape:version="0.48.4 r9939"
   sodipodi:docname="sound-on-2.svg">
  <defs
     id="defs4" />
  <sodipodi:namedview
     id="base"
     pagecolor="#ffffff"
     bordercolor="#666666"
     borderopacity="1.0"
     inkscape:pageopacity="0.0"
     inkscape:pageshadow="2"
     inkscape:zoom="3.959798"
     inkscape:cx="134.15752"
     inkscape:cy="50.589983"
     inkscape:document-units="px"
     inkscape:current-layer="layer1"
     showgrid="false"
     inkscape:window-width="1600"
     inkscape:window-height="838"
     inkscape:window-x="-8"
     inkscape:window-y="-8"
     inkscape:window-maximized="1" />
  <metadata
     id="metadata7">
    <rdf:RDF>
      <cc:Work
         rdf:about="">
        <dc:format>image/svg+xml</dc:format>
        <dc:type
           rdf:resource="http://purl.org/dc/dcmitype/StillImage" />
        <dc:title></dc:title>
      </cc:Work>
    </rdf:RDF>
  </metadata>
  <g
     inkscape:label="Layer 1"
     inkscape:groupmode="layer"
     id="layer1"
     transform="translate(0,-1002.3614)">
    <g
       id="layer1-4"
       inkscape:label="Layer 1"
       transform="translate(-345.88738,611.7711)">
      <path
         transform="matrix(1.0067997,0,0,0.98582467,-5.9189876,6.0185968)"
         d="m 398.00009,415.461 c 0,13.3894 -10.62813,24.24366 -23.73858,24.24366 -13.11046,0 -23.73859,-10.85426 -23.73859,-24.24366 0,-13.38941 10.62813,-24.24366 23.73859,-24.24366 13.11045,0 23.73858,10.85425 23.73858,24.24366 z"
         sodipodi:ry="24.243662"
         sodipodi:rx="23.738585"
         sodipodi:cy="415.461"
         sodipodi:cx="374.26151"
         id="path2991-5"
         style="fill:#181818;fill-opacity:1;fill-rule:nonzero;stroke:none"
         sodipodi:type="arc" />
      <g
         transform="translate(354.80637,402.98826)"
         id="g3767">
        <path
           inkscape:connector-curvature="0"
           style="fill:#e6e6e6"
           d="m 15.997029,24.670622 c -0.135022,-0.07416 -1.918337,-1.586825 -3.962916,-3.361523 L 8.3166824,18.08238 4.8447469,18.07858 C 0.93821144,18.07418 1.0010675,18.08228 0.59312151,17.547562 L 0.3908493,17.282468 0.37182684,12.630259 C 0.35332659,8.0981682 0.35645966,7.9709492 0.49298875,7.7033222 0.66448187,7.3671542 0.93735354,7.1644272 1.3447252,7.0705152 c 0.1845104,-0.04252 1.6766103,-0.07289 3.7104176,-0.07541 l 3.4017987,-0.0044 3.6472855,-3.162251 c 2.006013,-1.739242 3.74198,-3.22143499 3.857712,-3.29376499 0.257549,-0.160975 0.867856,-0.176514 1.15244,-0.02932 0.274782,0.142094 0.546773,0.483148 0.633046,0.79377399 0.04848,0.174551 0.07155,3.926863 0.06975,11.3429838 -0.0031,11.773281 0.0075,11.395061 -0.323032,11.760583 -0.357294,0.395086 -1.042177,0.51756 -1.497143,0.267733 z"
           id="path4140" />
        <path
           inkscape:connector-curvature="0"
           style="font-size:17.52726555px;font-style:normal;font-variant:normal;font-weight:bold;font-stretch:normal;text-align:start;line-height:125%;letter-spacing:0px;word-spacing:0px;writing-mode:lr-tb;text-anchor:start;fill:#e6e6e6;fill-opacity:1;stroke:none;font-family:Calibri;-inkscape-font-specification:Calibri Bold"
           d="m 22.25,7.5 c -0.201352,0.012539 -0.331556,0.041136 -0.40625,0.09375 -0.07469,0.052633 -0.07347,0.1422559 -0.03125,0.25 0.04222,0.1077629 0.101836,0.2570845 0.21875,0.4375 l 2.8125,4 -3.03125,4.25 c -0.123409,0.175413 -0.179779,0.301003 -0.21875,0.40625 -0.03897,0.105248 -0.0337,0.19487 0.03125,0.25 0.06495,0.05513 0.189886,0.07871 0.375,0.09375 0.185112,0.01504 0.443498,0.03125 0.78125,0.03125 0.292282,0 0.54013,-0.02123 0.71875,-0.03125 0.178616,-0.01002 0.305572,-0.0087 0.40625,-0.03125 0.100673,-0.02255 0.173281,-0.05366 0.21875,-0.09375 C 24.17046,17.11616 24.21103,17.06014 24.25,17 l 2.34375,-3.5 2.375,3.5 c 0.03247,0.06014 0.07953,0.116156 0.125,0.15625 0.04546,0.04009 0.118066,0.0712 0.21875,0.09375 0.100667,0.02255 0.230871,0.02123 0.40625,0.03125 0.175362,0.01002 0.413467,0.03125 0.71875,0.03125 0.363722,0 0.670391,-0.01621 0.875,-0.03125 0.204588,-0.01504 0.328297,-0.03862 0.40625,-0.09375 0.07793,-0.05513 0.09821,-0.144752 0.0625,-0.25 -0.03573,-0.105247 -0.101847,-0.230837 -0.21875,-0.40625 l -3,-4.28125 2.8125,-3.96875 C 31.485408,8.1008345 31.558016,7.949007 31.59375,7.84375 31.62946,7.7385118 31.60265,7.6801394 31.53125,7.625 31.45979,7.56988 31.344601,7.5125392 31.15625,7.5 c -0.188371,-0.01252 -0.456499,9.8e-6 -0.78125,0 -0.292293,9.8e-6 -0.521881,-0.010014 -0.6875,0 -0.165636,0.010033 -0.280828,0.039957 -0.375,0.0625 -0.09419,0.022563 -0.176539,0.053665 -0.21875,0.09375 -0.04223,0.040104 -0.08604,0.096118 -0.125,0.15625 L 26.8125,11 24.625,7.8125 C 24.586025,7.752368 24.542215,7.6963539 24.5,7.65625 24.457778,7.6161653 24.38517,7.5850628 24.28125,7.5625 24.177324,7.5399566 24.022365,7.5100333 23.84375,7.5 c -0.17862,-0.010014 -0.413478,9.8e-6 -0.71875,0 -0.370228,9.8e-6 -0.67365,-0.01252 -0.875,0 z"
           id="text4142" />
      </g>
    </g>
  </g>
</svg>
