<?xml version="1.0" encoding="UTF-8" standalone="no"?>
<!-- Created with Inkscape (http://www.inkscape.org/) -->

<svg
   xmlns:dc="http://purl.org/dc/elements/1.1/"
   xmlns:cc="http://creativecommons.org/ns#"
   xmlns:rdf="http://www.w3.org/1999/02/22-rdf-syntax-ns#"
   xmlns:svg="http://www.w3.org/2000/svg"
   xmlns="http://www.w3.org/2000/svg"
   xmlns:sodipodi="http://sodipodi.sourceforge.net/DTD/sodipodi-0.dtd"
   xmlns:inkscape="http://www.inkscape.org/namespaces/inkscape"
   width="50"
   height="50"
   id="svg2"
   version="1.1"
   inkscape:version="0.48.4 r9939"
   sodipodi:docname="New document 1">
  <defs
     id="defs4" />
  <sodipodi:namedview
     id="base"
     pagecolor="#ffffff"
     bordercolor="#666666"
     borderopacity="1.0"
     inkscape:pageopacity="0.0"
     inkscape:pageshadow="2"
     inkscape:zoom="3.959798"
     inkscape:cx="134.15752"
     inkscape:cy="50.589983"
     inkscape:document-units="px"
     inkscape:current-layer="layer1"
     showgrid="false"
     inkscape:window-width="1600"
     inkscape:window-height="838"
     inkscape:window-x="-8"
     inkscape:window-y="-8"
     inkscape:window-maximized="1" />
  <metadata
     id="metadata7">
    <rdf:RDF>
      <cc:Work
         rdf:about="">
        <dc:format>image/svg+xml</dc:format>
        <dc:type
           rdf:resource="http://purl.org/dc/dcmitype/StillImage" />
        <dc:title></dc:title>
      </cc:Work>
    </rdf:RDF>
  </metadata>
  <g
     inkscape:label="Layer 1"
     inkscape:groupmode="layer"
     id="layer1"
     transform="translate(0,-1002.3614)">
    <g
       id="layer1-9"
       inkscape:label="Layer 1"
       transform="translate(-345.46341,610.01489)">
      <path
         transform="matrix(1.0067997,0,0,0.98582467,-6.3429611,7.7748082)"
         d="m 398.00009,415.461 a 23.738585,24.243662 0 1 1 -47.47717,0 23.738585,24.243662 0 1 1 47.47717,0 z"
         sodipodi:ry="24.243662"
         sodipodi:rx="23.738585"
         sodipodi:cy="415.461"
         sodipodi:cx="374.26151"
         id="path2991"
         style="fill:#181818;fill-opacity:1;fill-rule:nonzero;stroke:none"
         sodipodi:type="arc" />
      <path
         inkscape:connector-curvature="0"
         id="path4090"
         d="m 370.5078,429.41487 c -0.13502,-0.0742 -1.91834,-1.58682 -3.96292,-3.36152 l -3.71743,-3.22672 -3.47193,-0.004 c -3.90654,-0.004 -3.84368,0.004 -4.25163,-0.53102 l -0.20227,-0.26509 -0.019,-4.65221 c -0.0185,-4.53209 -0.0154,-4.65931 0.12116,-4.92694 0.17149,-0.33617 0.44436,-0.53889 0.85173,-0.63281 0.18451,-0.0425 1.67661,-0.0729 3.71042,-0.0754 l 3.4018,-0.004 3.64729,-3.16225 c 2.00601,-1.73924 3.74198,-3.22143 3.85771,-3.29376 0.25755,-0.16098 0.86785,-0.17652 1.15244,-0.0293 0.27478,0.14209 0.54677,0.48315 0.63304,0.79377 0.0485,0.17455 0.0716,3.92686 0.0697,11.34299 -0.003,11.77328 0.007,11.39506 -0.32303,11.76058 -0.35729,0.39508 -1.04218,0.51756 -1.49714,0.26773 z m 10.06526,-0.0396 c -0.40595,-0.21167 -0.57385,-0.42812 -0.67472,-0.86981 -0.0897,-0.39277 0.0527,-0.74989 0.60103,-1.50783 1.5429,-2.13251 2.46061,-4.31717 2.91769,-6.94571 0.18751,-1.0783 0.25537,-3.06387 0.14382,-4.20841 -0.28203,-2.89402 -1.37537,-5.77177 -3.05675,-8.04563 -0.56942,-0.77009 -0.66769,-0.9639 -0.66769,-1.31684 0,-0.88582 0.83611,-1.47245 1.65364,-1.16023 0.34325,0.13109 0.74671,0.58322 1.42083,1.59223 1.52705,2.28569 2.57287,4.98918 3.00697,7.77316 0.18106,1.16115 0.17868,4.24651 -0.004,5.43586 -0.25243,1.64179 -0.77331,3.42275 -1.44623,4.94489 -0.7725,1.74737 -2.28086,4.04242 -2.82715,4.30166 -0.30969,0.14695 -0.79241,0.14997 -1.06724,0.007 z m -2.94604,-2.9344 c -0.43723,-0.19433 -0.66633,-0.59217 -0.66633,-1.15712 0,-0.29728 0.0566,-0.42172 0.50002,-1.10015 2.74035,-4.19234 2.73743,-9.46144 -0.007,-13.5886 -0.66853,-1.00516 -0.72814,-1.45715 -0.26216,-1.98787 0.37254,-0.4243 0.90748,-0.55657 1.40695,-0.34788 0.80956,0.33826 2.33228,3.18921 2.92489,5.47621 0.59366,2.29107 0.60729,4.93722 0.037,7.18417 -0.39668,1.56292 -1.07024,3.12668 -1.896,4.40178 -0.45651,0.70494 -0.69056,0.97682 -0.96371,1.11952 -0.23665,0.12363 -0.79489,0.1236 -1.07312,-6e-5 z m -3.1212,-3.13609 c -0.42856,-0.17089 -0.70824,-0.60398 -0.7121,-1.10269 -0.002,-0.26862 0.0775,-0.48949 0.42165,-1.17049 0.23332,-0.46167 0.50329,-1.11461 0.59991,-1.45097 0.59301,-2.06427 0.32485,-4.26486 -0.74422,-6.10747 -0.43355,-0.74723 -0.44414,-1.24528 -0.0363,-1.70972 0.51942,-0.5916 1.33051,-0.59621 1.84479,-0.0104 0.31281,0.35628 0.90432,1.5491 1.18186,2.38332 0.4167,1.25252 0.49401,1.76121 0.49401,3.25031 0,1.48909 -0.0773,1.99778 -0.49401,3.25031 -0.26124,0.78524 -0.85242,1.99776 -1.14157,2.34139 -0.099,0.11767 -0.28304,0.25699 -0.40898,0.30961 -0.26398,0.1103 -0.75023,0.11846 -1.00499,0.0169 z"
         style="fill:#e6e6e6" />
    </g>
  </g>
</svg>
